<?xml version="1.0" standalone="no"?>
<!DOCTYPE svg PUBLIC "-//W3C//DTD SVG 20010904//EN"
 "http://www.w3.org/TR/2001/REC-SVG-20010904/DTD/svg10.dtd">
<svg version="1.0" xmlns="http://www.w3.org/2000/svg"
 width="571.000000pt" height="571.000000pt" viewBox="0 0 571.000000 571.000000"
 preserveAspectRatio="xMidYMid meet">
<metadata>
Created by potrace 1.14, written by Peter Selinger 2001-2017
</metadata>
<g transform="translate(0.000000,571.000000) scale(0.100000,-0.100000)"
fill="#000000" stroke="none">
<path d="M2760 5290 c-179 -36 -265 -71 -395 -161 -89 -61 -202 -178 -254
-261 -19 -33 -28 -38 -59 -38 -631 -5 -875 -4 -879 3 -8 12 59 138 80 148 9 5
17 6 17 2 0 -4 7 2 15 13 15 18 15 18 29 1 8 -10 22 -17 32 -15 16 3 16 4 1
20 -9 9 -22 18 -28 20 -27 9 2 58 54 93 96 63 197 71 197 15 0 -12 5 -18 10
-15 13 8 13 -1 0 -26 -9 -16 -7 -19 10 -19 11 0 20 5 20 11 0 7 11 8 30 4 25
-6 30 -4 30 13 0 10 11 24 25 30 14 6 25 16 25 22 0 13 -6 13 -39 -5 -26 -13
-30 -13 -41 0 -10 13 -9 19 5 35 9 10 15 25 12 32 -2 8 -12 0 -23 -20 -14 -25
-24 -31 -39 -27 -92 26 -154 14 -243 -46 -48 -32 -74 -36 -92 -14 -7 8 -19 15
-28 15 -12 0 -11 -5 6 -23 26 -27 27 -40 7 -57 -12 -10 -21 -10 -45 0 -41 17
-49 6 -20 -25 22 -24 23 -28 11 -63 -27 -76 -60 -122 -89 -123 -15 -1 -139 -1
-277 -1 -137 1 -261 -1 -275 -4 -25 -5 -26 -7 -23 -72 2 -37 8 -111 14 -165 8
-67 8 -102 1 -109 -7 -7 -12 -3 -17 11 -3 12 -10 21 -14 21 -17 0 -19 -13 -6
-34 16 -24 10 -38 -22 -55 -12 -6 -20 -17 -17 -24 2 -7 -9 -39 -25 -72 -16
-32 -27 -64 -23 -69 4 -6 8 -1 10 12 2 12 7 22 11 22 4 0 13 11 19 25 13 29
40 34 38 8 -1 -12 10 -21 31 -27 42 -13 49 -33 68 -196 9 -74 20 -171 25 -215
14 -111 13 -117 -7 -113 -10 2 -17 10 -15 16 1 7 -7 12 -17 12 -37 0 -141 145
-141 196 0 8 11 19 25 24 35 13 31 24 -5 17 -35 -7 -44 17 -10 28 34 11 22 20
-24 20 -29 0 -41 -3 -35 -10 17 -17 9 -35 -16 -35 -14 0 -25 -4 -25 -10 0 -5
11 -10 24 -10 20 0 24 -6 29 -39 5 -38 68 -135 111 -170 19 -16 21 -42 4 -59
-6 -6 -9 -15 -5 -19 4 -4 13 -1 19 5 21 21 46 13 57 -18 7 -20 7 -30 0 -30 -6
0 -2 -12 9 -27 62 -88 63 -89 112 -518 20 -175 51 -432 70 -590 11 -88 23
-191 26 -229 l7 -69 -26 7 c-25 6 -26 5 -16 -17 9 -20 4 -34 -40 -100 -28 -42
-55 -94 -59 -115 -5 -24 -15 -40 -30 -47 -26 -11 -28 -21 -6 -29 24 -9 6 -27
-22 -20 -32 8 -32 -13 1 -28 19 -9 24 -16 19 -31 -10 -30 -5 -146 6 -167 8
-16 14 -17 35 -7 25 12 26 14 20 80 -5 44 -3 72 4 81 8 10 8 16 -3 25 -13 11
-11 19 9 57 17 32 20 44 10 44 -23 0 -25 15 -10 66 21 71 85 135 85 85 0 -10
7 -24 16 -31 29 -25 34 -48 59 -277 55 -487 84 -729 93 -778 7 -36 11 -40 42
-45 19 -3 467 -3 996 0 925 5 1088 3 965 -13 -62 -7 -99 -32 -65 -43 10 -3 28
-9 39 -14 11 -5 28 -11 38 -14 23 -7 37 -46 26 -68 -8 -16 -45 -36 -91 -52
-10 -3 -18 -10 -18 -16 0 -20 47 -10 94 20 40 26 47 35 42 53 -3 12 -6 27 -6
34 0 18 -41 53 -62 53 -38 0 -16 18 30 23 77 9 231 28 312 37 86 11 315 35
475 50 228 23 291 30 317 36 21 5 32 0 52 -21 39 -42 52 -100 34 -152 -18 -50
-15 -52 65 -45 51 4 61 8 84 38 16 22 34 34 49 34 20 0 24 5 24 30 0 26 4 30
26 30 21 0 25 -3 18 -17 -9 -19 -8 -97 1 -120 3 -10 10 -11 24 -3 16 8 23 5
39 -17 l20 -28 12 26 c12 26 95 71 167 91 18 5 44 20 57 33 13 13 36 27 50 31
14 3 26 10 26 15 0 5 11 9 24 9 30 0 44 46 55 192 7 94 11 110 34 138 15 17
30 44 33 58 3 15 9 39 14 53 5 17 4 31 -3 38 -8 8 -8 14 1 23 15 15 15 29 0
25 -18 -3 -41 53 -46 113 -2 30 6 136 18 235 63 533 89 750 115 985 7 69 25
215 39 325 14 110 41 337 61 505 54 465 74 633 91 769 8 68 17 158 20 200 2
42 7 88 10 104 5 22 3 27 -12 28 -11 1 -361 2 -779 4 -418 1 -764 3 -770 4 -5
1 -19 20 -30 43 -26 54 -183 214 -263 267 -68 46 -198 111 -221 111 -8 0 -39
9 -70 19 -60 20 -201 42 -267 40 -21 0 -82 -9 -134 -19z m1497 -1782 c-3 -8
-6 -5 -6 6 -1 11 2 17 5 13 3 -3 4 -12 1 -19z m-320 -1270 c-3 -8 -6 -5 -6 6
-1 11 2 17 5 13 3 -3 4 -12 1 -19z m1001 -647 c3 -16 -1 -22 -10 -19 -7 3 -15
15 -16 27 -3 16 1 22 10 19 7 -3 15 -15 16 -27z m20 -69 c-5 -25 -44 -28 -51
-3 -2 10 0 24 6 30 14 14 49 -6 45 -27z m-61 -286 c-4 -9 -11 -16 -17 -16 -11
0 -14 33 -3 44 11 10 26 -11 20 -28z m-629 -155 c21 -13 10 -44 -18 -52 -39
-10 -83 40 -47 54 20 8 51 7 65 -2z m317 -81 c5 -8 11 -7 20 0 21 18 60 8 63
-15 4 -31 -61 -65 -121 -63 -33 0 -47 5 -47 14 0 8 -4 14 -10 14 -5 0 -10 -7
-10 -15 0 -19 -16 -20 -23 -1 -9 22 29 64 61 69 50 8 61 7 67 -3z"/>
<path d="M4890 1010 c0 -5 5 -10 11 -10 5 0 7 5 4 10 -3 6 -8 10 -11 10 -2 0
-4 -4 -4 -10z"/>
<path d="M4901 977 c-6 -8 -29 -17 -50 -20 -39 -5 -104 -31 -131 -52 -8 -7
-26 -15 -40 -18 -14 -4 -32 -20 -42 -36 -9 -16 -35 -43 -59 -60 -58 -43 -72
-66 -65 -104 4 -18 7 -39 7 -48 0 -13 10 -17 37 -16 20 0 42 3 47 7 15 12 61
19 166 29 126 12 196 43 239 107 35 53 36 54 11 54 -12 0 -21 10 -25 26 -4 15
-18 42 -32 60 -14 18 -23 38 -19 44 10 16 94 12 123 -6 36 -21 72 -79 72 -114
0 -15 -8 -47 -19 -70 -15 -33 -17 -49 -9 -80 12 -45 31 -56 61 -35 12 8 25 15
29 15 18 0 48 -42 48 -66 0 -14 4 -23 9 -19 15 9 -8 64 -34 81 -13 8 -25 24
-28 36 -4 15 -12 19 -25 16 -40 -11 -48 8 -24 50 24 43 28 91 11 123 -7 15 -7
24 1 33 8 10 6 15 -10 19 -13 3 -18 10 -14 21 7 19 -7 21 -24 4 -9 -9 -17 -9
-34 1 -13 6 -48 13 -78 15 -30 2 -62 7 -71 10 -9 4 -21 1 -28 -7z m46 -77 c26
-53 29 -102 8 -120 -9 -7 -14 -19 -11 -26 7 -19 -37 -43 -102 -56 -31 -6 -61
-14 -67 -18 -5 -4 -41 -8 -79 -9 -49 -1 -75 3 -93 15 -18 11 -28 13 -36 5 -19
-19 -37 -12 -37 13 0 34 80 100 110 91 14 -5 20 -2 20 9 0 9 5 16 10 16 6 0
10 7 10 14 0 29 75 74 165 102 63 19 78 14 102 -36z"/>
<path d="M2550 910 c-10 -7 6 -10 55 -10 49 0 65 3 55 10 -8 5 -33 10 -55 10
-22 0 -47 -5 -55 -10z"/>
<path d="M2434 859 c-10 -17 9 -28 39 -22 l28 5 -27 14 c-32 17 -31 17 -40 3z"/>
<path d="M2740 841 c0 -11 -6 -21 -12 -24 -7 -2 -10 -7 -7 -11 8 -9 50 34 44
45 -10 16 -25 10 -25 -10z"/>
<path d="M2078 844 c-12 -11 -10 -42 3 -49 14 -10 16 -4 10 28 -3 16 -9 25
-13 21z"/>
<path d="M2170 821 c-14 -10 -34 -21 -45 -24 -13 -3 -10 -5 12 -6 30 -1 63 20
63 40 0 12 -1 12 -30 -10z"/>
<path d="M1880 815 c-6 -8 -10 -19 -8 -24 1 -5 11 2 21 15 19 26 8 34 -13 9z"/>
<path d="M3608 823 c7 -3 16 -2 19 1 4 3 -2 6 -13 5 -11 0 -14 -3 -6 -6z"/>
<path d="M3470 811 c0 -9 108 -6 118 4 3 3 -22 5 -56 5 -34 0 -62 -4 -62 -9z"/>
<path d="M1717 798 c-9 -7 -21 -26 -26 -41 -16 -43 4 -67 55 -67 31 0 45 -5
56 -21 8 -12 20 -20 27 -18 23 8 -40 61 -67 56 -34 -7 -63 22 -51 51 5 13 18
26 29 29 11 3 17 9 14 14 -7 12 -17 11 -37 -3z"/>
<path d="M1970 785 c0 -8 7 -15 15 -15 8 0 15 7 15 15 0 8 -7 15 -15 15 -8 0
-15 -7 -15 -15z"/>
<path d="M3353 793 c9 -2 23 -2 30 0 6 3 -1 5 -18 5 -16 0 -22 -2 -12 -5z"/>
<path d="M1575 780 c-16 -7 -12 -9 18 -9 23 -1 36 3 32 9 -7 12 -23 12 -50 0z"/>
<path d="M2367 784 c-12 -12 4 -25 18 -14 10 8 19 8 36 0 17 -10 20 -9 17 2
-5 14 -59 24 -71 12z"/>
<path d="M3138 779 c-8 -6 1 -9 25 -9 20 0 37 2 37 4 0 9 -50 12 -62 5z"/>
<path d="M1780 776 c0 -2 7 -7 16 -10 8 -3 12 -2 9 4 -6 10 -25 14 -25 6z"/>
<path d="M1902 761 c-11 -7 -10 -10 3 -15 19 -7 35 0 35 15 0 11 -20 12 -38 0z"/>
<path d="M2075 760 c-4 -6 7 -10 27 -10 25 0 29 3 18 10 -19 13 -37 13 -45 0z"/>
<path d="M2955 761 c-3 -5 -2 -12 2 -14 14 -8 113 5 107 14 -7 12 -101 11
-109 0z"/>
<path d="M1645 750 c3 -5 8 -10 11 -10 2 0 4 5 4 10 0 6 -5 10 -11 10 -5 0 -7
-4 -4 -10z"/>
<path d="M2738 753 c7 -3 16 -2 19 1 4 3 -2 6 -13 5 -11 0 -14 -3 -6 -6z"/>
<path d="M1265 740 c-8 -12 20 -24 35 -15 5 3 10 10 10 16 0 12 -37 12 -45 -1z"/>
<path d="M1980 740 c-8 -5 -31 -10 -50 -11 -28 -1 -23 -4 23 -11 45 -8 57 -14
55 -27 -2 -10 -17 -18 -38 -21 l-35 -6 35 -6 c51 -8 62 -1 55 36 -9 41 -26 58
-45 46z"/>
<path d="M2165 740 c-3 -5 -1 -10 4 -10 6 0 11 5 11 10 0 6 -2 10 -4 10 -3 0
-8 -4 -11 -10z"/>
<path d="M2380 742 c0 -18 26 -32 62 -32 45 0 52 17 7 18 -18 0 -37 6 -42 11
-13 13 -27 14 -27 3z"/>
<path d="M2660 736 c0 -9 7 -16 16 -16 17 0 14 22 -4 28 -7 2 -12 -3 -12 -12z"/>
<path d="M2780 740 c0 -5 19 -10 42 -10 49 0 47 5 -4 14 -24 4 -38 3 -38 -4z"/>
<path d="M1570 728 c-22 -10 -23 -12 -6 -15 10 -3 26 2 34 11 19 18 8 20 -28
4z"/>
<path d="M1360 726 c0 -6 60 -36 72 -36 17 0 7 16 -19 28 -27 12 -53 16 -53 8z"/>
<path d="M1828 703 c7 -3 16 -2 19 1 4 3 -2 6 -13 5 -11 0 -14 -3 -6 -6z"/>
<path d="M5240 540 c-11 -20 -21 -20 -2364 -20 l-2353 0 -7 -52 c-13 -117 -4
-206 26 -237 l19 -21 2354 2 c2243 3 2355 4 2372 21 15 15 19 39 21 148 3 124
3 132 -19 155 -27 29 -35 30 -49 4z"/>
</g>
</svg>
